<svg width="1920" height="3000" viewBox="0 0 1920 3000" fill="none" xmlns="http://www.w3.org/2000/svg">
<rect width="1920" height="3000" fill="#D2D2D2"/>
<path d="M113 303C113 280.909 130.909 263 153 263H1758C1780.09 263 1798 280.909 1798 303V413H113V303Z" fill="#12239E"/>
<rect x="110" y="709" width="787" height="657" rx="30" fill="white"/>
<rect x="113" y="1401" width="1680" height="450" rx="30" fill="white"/>
<rect x="113" y="1927" width="1680" height="450" rx="30" fill="white"/>
<rect x="113" y="2453" width="1680" height="450" rx="30" fill="white"/>
<rect x="975" y="709" width="823" height="216" rx="30" fill="white"/>
<rect x="975" y="956" width="823" height="410" rx="30" fill="white"/>
<rect x="113" y="492" width="370" height="124" rx="30" fill="white"/>
<rect x="1446" y="492" width="370" height="124" rx="30" fill="white"/>
<rect x="553" y="492" width="370" height="124" rx="30" fill="white"/>
<rect x="993" y="492" width="370" height="124" rx="30" fill="white"/>
<path d="M177.843 551.343C178.265 550.92 178.503 550.347 178.503 549.75C178.503 549.152 178.265 548.579 177.843 548.157C177.42 547.734 176.847 547.497 176.25 547.497C175.652 547.497 175.079 547.734 174.657 548.157L162.75 560.068L157.593 554.907C157.17 554.484 156.597 554.247 156 554.247C155.402 554.247 154.829 554.484 154.407 554.907C153.984 555.329 153.747 555.902 153.747 556.5C153.747 557.097 153.984 557.67 154.407 558.093L161.157 564.843C161.366 565.052 161.614 565.219 161.888 565.332C162.161 565.446 162.454 565.504 162.75 565.504C163.046 565.504 163.339 565.446 163.612 565.332C163.886 565.219 164.134 565.052 164.343 564.843L177.843 551.343Z" fill="#12239E"/>
<path d="M192 579V536.25L171.75 516H147C144.613 516 142.324 516.948 140.636 518.636C138.948 520.324 138 522.613 138 525V579C138 581.387 138.948 583.676 140.636 585.364C142.324 587.052 144.613 588 147 588H183C185.387 588 187.676 587.052 189.364 585.364C191.052 583.676 192 581.387 192 579ZM171.75 529.5C171.75 531.29 172.461 533.007 173.727 534.273C174.993 535.539 176.71 536.25 178.5 536.25H187.5V579C187.5 580.193 187.026 581.338 186.182 582.182C185.338 583.026 184.193 583.5 183 583.5H147C145.807 583.5 144.662 583.026 143.818 582.182C142.974 581.338 142.5 580.193 142.5 579V525C142.5 523.807 142.974 522.662 143.818 521.818C144.662 520.974 145.807 520.5 147 520.5H171.75V529.5Z" fill="#12239E"/>
<g clip-path="url(#clip0_6_16)">
<path fill-rule="evenodd" clip-rule="evenodd" d="M622.5 583.5C627.274 583.5 631.852 581.604 635.228 578.228C638.604 574.852 640.5 570.274 640.5 565.5C640.5 560.726 638.604 556.148 635.228 552.772C631.852 549.396 627.274 547.5 622.5 547.5C617.726 547.5 613.148 549.396 609.772 552.772C606.396 556.148 604.5 560.726 604.5 565.5C604.5 570.274 606.396 574.852 609.772 578.228C613.148 581.604 617.726 583.5 622.5 583.5ZM645 565.5C645 571.467 642.629 577.19 638.41 581.41C634.19 585.629 628.467 588 622.5 588C616.533 588 610.81 585.629 606.59 581.41C602.371 577.19 600 571.467 600 565.5C600 559.533 602.371 553.81 606.59 549.59C610.81 545.371 616.533 543 622.5 543C628.467 543 634.19 545.371 638.41 549.59C642.629 553.81 645 559.533 645 565.5Z" fill="#12239E"/>
<path d="M615.471 569.748C615.682 572.43 617.802 574.518 621.604 574.77V576.75H623.292V574.757C627.229 574.482 629.529 572.376 629.529 569.325C629.529 566.544 627.774 565.113 624.624 564.375L623.292 564.06V558.66C624.984 558.853 626.055 559.776 626.311 561.054H629.272C629.061 558.467 626.842 556.446 623.292 556.226V554.25H621.604V556.275C618.243 556.603 615.957 558.624 615.957 561.486C615.957 564.015 617.658 565.626 620.488 566.283L621.604 566.557V572.281C619.876 572.02 618.729 571.067 618.472 569.748H615.471ZM621.591 563.655C619.93 563.273 619.03 562.485 619.03 561.306C619.03 559.983 620.002 558.993 621.604 558.705V563.655H621.591ZM623.535 567.012C625.555 567.48 626.482 568.236 626.482 569.572C626.482 571.098 625.326 572.142 623.292 572.336V566.958L623.535 567.012Z" fill="#12239E"/>
<path d="M577.5 516C576.307 516 575.162 516.474 574.318 517.318C573.474 518.162 573 519.307 573 520.5V556.5C573 557.693 573.474 558.838 574.318 559.682C575.162 560.526 576.307 561 577.5 561H595.874C596.138 559.449 596.525 557.949 597.035 556.5H586.5C586.5 554.113 585.552 551.824 583.864 550.136C582.176 548.448 579.887 547.5 577.5 547.5V529.5C579.887 529.5 582.176 528.552 583.864 526.864C585.552 525.176 586.5 522.887 586.5 520.5H631.5C631.5 522.887 632.448 525.176 634.136 526.864C635.824 528.552 638.113 529.5 640.5 529.5V545.376C642.21 546.906 643.727 548.652 645 550.569V520.5C645 519.307 644.526 518.162 643.682 517.318C642.838 516.474 641.693 516 640.5 516H577.5Z" fill="#12239E"/>
<path d="M617.991 538.874L618 538.5C617.999 536.95 617.598 535.427 616.835 534.078C616.073 532.728 614.975 531.599 613.648 530.798C612.321 529.998 610.809 529.554 609.26 529.509C607.711 529.464 606.176 529.82 604.805 530.543C603.434 531.265 602.273 532.329 601.433 533.632C600.594 534.935 600.106 536.433 600.015 537.98C599.925 539.527 600.236 541.072 600.917 542.464C601.599 543.856 602.628 545.048 603.906 545.925C607.796 542.227 612.699 539.772 617.991 538.874Z" fill="#12239E"/>
</g>
<path d="M1044.5 579C1044.5 579 1040 579 1040 574.5C1040 570 1044.5 556.5 1062.5 556.5C1080.5 556.5 1085 570 1085 574.5C1085 579 1080.5 579 1080.5 579H1044.5ZM1062.5 552C1066.08 552 1069.51 550.578 1072.05 548.046C1074.58 545.514 1076 542.08 1076 538.5C1076 534.92 1074.58 531.486 1072.05 528.954C1069.51 526.422 1066.08 525 1062.5 525C1058.92 525 1055.49 526.422 1052.95 528.954C1050.42 531.486 1049 534.92 1049 538.5C1049 542.08 1050.42 545.514 1052.95 548.046C1055.49 550.578 1058.92 552 1062.5 552ZM1036.47 579C1035.81 577.595 1035.47 576.055 1035.5 574.5C1035.5 568.402 1038.56 562.125 1044.21 557.76C1041.39 556.889 1038.45 556.464 1035.5 556.5C1017.5 556.5 1013 570 1013 574.5C1013 579 1017.5 579 1017.5 579H1036.47ZM1033.25 552C1036.23 552 1039.1 550.815 1041.2 548.705C1043.31 546.595 1044.5 543.734 1044.5 540.75C1044.5 537.766 1043.31 534.905 1041.2 532.795C1039.1 530.685 1036.23 529.5 1033.25 529.5C1030.27 529.5 1027.4 530.685 1025.3 532.795C1023.19 534.905 1022 537.766 1022 540.75C1022 543.734 1023.19 546.595 1025.3 548.705C1027.4 550.815 1030.27 552 1033.25 552Z" fill="#12239E"/>
<g clip-path="url(#clip1_6_16)">
<path d="M1480.08 567.853V557.503H1490.25V554.758H1480.08V546.604H1491.17V543.859H1477V567.853H1480.08ZM1494.91 567.853H1497.95V556.41C1497.95 553.917 1498.97 551.878 1502.24 551.878C1502.8 551.878 1503.4 551.896 1503.72 551.946V549.187C1503.34 549.133 1502.96 549.103 1502.58 549.097C1499.96 549.097 1498.57 550.537 1498.02 551.649H1497.93V549.381H1494.91V567.853ZM1507.53 544.935C1507.53 546.006 1508.4 546.847 1509.47 546.847C1509.73 546.86 1509.99 546.819 1510.23 546.728C1510.48 546.638 1510.7 546.498 1510.89 546.318C1511.08 546.138 1511.23 545.922 1511.33 545.682C1511.43 545.442 1511.49 545.184 1511.49 544.924C1511.49 544.663 1511.43 544.405 1511.33 544.165C1511.23 543.925 1511.08 543.709 1510.89 543.529C1510.7 543.349 1510.48 543.21 1510.23 543.119C1509.99 543.028 1509.73 542.987 1509.47 543C1509.21 542.997 1508.96 543.046 1508.72 543.142C1508.49 543.239 1508.27 543.381 1508.09 543.561C1507.91 543.741 1507.77 543.956 1507.67 544.191C1507.58 544.427 1507.53 544.68 1507.53 544.935ZM1507.96 567.853H1510.98V549.381H1507.96V567.853Z" fill="#12239E"/>
<path d="M1474.75 516C1475.35 516 1475.92 516.237 1476.34 516.659C1476.76 517.081 1477 517.653 1477 518.25V520.5H1513V518.25C1513 517.653 1513.24 517.081 1513.66 516.659C1514.08 516.237 1514.65 516 1515.25 516C1515.85 516 1516.42 516.237 1516.84 516.659C1517.26 517.081 1517.5 517.653 1517.5 518.25V520.5H1522C1524.39 520.5 1526.68 521.448 1528.36 523.136C1530.05 524.824 1531 527.113 1531 529.5V579C1531 581.387 1530.05 583.676 1528.36 585.364C1526.68 587.052 1524.39 588 1522 588H1468C1465.61 588 1463.32 587.052 1461.64 585.364C1459.95 583.676 1459 581.387 1459 579V529.5C1459 527.113 1459.95 524.824 1461.64 523.136C1463.32 521.448 1465.61 520.5 1468 520.5H1472.5V518.25C1472.5 517.653 1472.74 517.081 1473.16 516.659C1473.58 516.237 1474.15 516 1474.75 516ZM1463.5 534V579C1463.5 580.193 1463.97 581.338 1464.82 582.182C1465.66 583.026 1466.81 583.5 1468 583.5H1522C1523.19 583.5 1524.34 583.026 1525.18 582.182C1526.03 581.338 1526.5 580.193 1526.5 579V534H1463.5Z" fill="#12239E"/>
</g>
<defs>
<clipPath id="clip0_6_16">
<rect width="72" height="72" fill="white" transform="translate(573 516)"/>
</clipPath>
<clipPath id="clip1_6_16">
<rect width="72" height="72" fill="white" transform="translate(1459 516)"/>
</clipPath>
</defs>
</svg>
